<?xml version="1.0" standalone="no"?>
<!DOCTYPE svg PUBLIC "-//W3C//DTD SVG 20010904//EN"
 "http://www.w3.org/TR/2001/REC-SVG-20010904/DTD/svg10.dtd">
<svg version="1.0" xmlns="http://www.w3.org/2000/svg"
 width="1285.000000pt" height="726.000000pt" viewBox="0 0 1285.000000 726.000000"
 preserveAspectRatio="xMidYMid meet">
<metadata>
Created by potrace 1.16, written by Peter Selinger 2001-2019
</metadata>
<g transform="translate(0.000000,726.000000) scale(0.100000,-0.100000)"
fill="#000000" stroke="none">
<path d="M0 3655 l0 -3605 228 0 c787 1 1659 68 2327 180 1092 183 1951 503
2807 1046 147 93 318 208 951 643 305 208 467 313 712 456 1102 648 2376 991
4115 1110 411 27 640 36 1178 42 l532 6 0 1864 0 1863 -6425 0 -6425 0 0
-3605z"/>
</g>
</svg>
